<svg width="73" height="72" viewBox="0 0 73 72" fill="none" xmlns="http://www.w3.org/2000/svg">
<g clip-path="url(#clip0_8374_45491)">
<path d="M36.5 0.5C43.5212 0.5 50.3848 2.58204 56.2227 6.48283C62.0607 10.3836 66.6108 15.928 69.2977 22.4147C71.9846 28.9015 72.6877 36.0394 71.3179 42.9257C69.9481 49.812 66.5671 56.1375 61.6023 61.1023C56.6375 66.0671 50.312 69.4481 43.4257 70.8179C36.5394 72.1877 29.4015 71.4846 22.9147 68.7977C16.428 66.1108 10.8836 61.5607 6.98283 55.7227C3.08204 49.8848 1 43.0212 1 36C1 26.5848 4.74017 17.5553 11.3977 10.8977C18.0553 4.24017 27.0848 0.5 36.5 0.5Z" fill="#FED500" stroke="white"/>
<path fill-rule="evenodd" clip-rule="evenodd" d="M35.5723 18.6623C35.5757 17.9335 35.7954 17.2222 36.2034 16.6185C36.6115 16.0147 37.1896 15.5457 37.8645 15.2708C38.5393 14.9958 39.2806 14.9274 39.9944 15.0742C40.7082 15.221 41.3624 15.5763 41.874 16.0952C42.3857 16.6141 42.7318 17.2732 42.8685 17.989C43.0053 18.7048 42.9265 19.445 42.6421 20.116C42.3577 20.7869 41.8806 21.3584 41.2712 21.7579C40.6617 22.1575 39.9474 22.3671 39.2187 22.3603C38.2558 22.347 37.336 21.9585 36.655 21.2775C35.9741 20.5966 35.5856 19.6768 35.5723 18.7139" fill="black"/>
<path fill-rule="evenodd" clip-rule="evenodd" d="M48.7129 28.7589C48.8944 28.4179 49.0441 28.061 49.1601 27.6925C49.3325 27.2557 49.3916 26.7823 49.3321 26.3165C49.3017 26.2524 49.2973 26.179 49.3198 26.1117C49.3422 26.0444 49.3897 25.9884 49.4525 25.9553C49.9341 25.7317 50.3985 25.4909 50.9489 25.2501C51.1897 25.1297 51.4133 25.0609 51.6541 24.9577C51.7821 24.8866 51.9232 24.8421 52.0689 24.827C52.2145 24.812 52.3618 24.8266 52.5016 24.87C52.6415 24.9134 52.7711 24.9847 52.8826 25.0796C52.9942 25.1745 53.0853 25.291 53.1505 25.4221C53.2291 25.5688 53.2745 25.7309 53.2834 25.8971C53.2923 26.0632 53.2646 26.2293 53.2023 26.3835C53.1399 26.5378 53.0444 26.6765 52.9225 26.7897C52.8006 26.903 52.6553 26.988 52.4969 27.0389C52.1048 27.2125 51.7254 27.4136 51.3617 27.6409C50.9489 27.8129 50.5877 27.9333 50.2265 28.1053C49.8453 28.3331 49.4487 28.5343 49.0397 28.7073C48.9193 28.7073 48.8505 28.7073 48.7301 28.7073" fill="black"/>
<path fill-rule="evenodd" clip-rule="evenodd" d="M27.9005 35.7936C27.7709 35.7186 27.6322 35.6608 27.4877 35.6216C27.1421 35.4856 26.8296 35.277 26.5715 35.01C26.3134 34.743 26.1155 34.4236 25.9913 34.0736C25.8358 33.7203 25.7657 33.3353 25.7866 32.9498C25.8075 32.5644 25.9189 32.1893 26.1117 31.8548C26.4041 31.27 26.8169 30.7196 27.1781 30.1348C27.5393 29.55 27.9005 29.0512 28.1929 28.518C28.4853 27.9848 28.9153 27.4516 29.2765 26.9699C29.6377 26.4883 29.9301 25.9035 30.2225 25.3531C30.5149 24.8027 31.0653 24.1147 31.4781 23.5127C31.6025 23.2217 31.7838 22.9586 32.0113 22.7387C32.2476 22.4686 32.5337 22.2467 32.8541 22.0851C33.2574 21.8805 33.7166 21.8141 34.1613 21.8959C34.6159 21.9827 35.0451 22.1708 35.417 22.4463C35.8461 22.7397 36.2595 23.0555 36.6554 23.3923C37.3262 23.8051 37.911 24.2867 38.513 24.6995C39.115 25.1123 38.341 26.6775 38.341 26.6775L39.7686 27.8644C39.8819 27.983 40.0321 28.0595 40.1947 28.0814C40.3573 28.1033 40.5224 28.0692 40.663 27.9848L41.9186 27.6236L43.157 27.2624C43.3503 27.1692 43.5519 27.0943 43.7591 27.0388C44.4815 26.8495 45.1351 26.6775 45.8403 26.4367C46.2106 26.3742 46.5911 26.4347 46.9239 26.6087C47.2121 26.7912 47.4537 27.0386 47.6291 27.3312C47.7616 27.652 47.8032 28.0031 47.7495 28.346C47.6399 28.7892 47.3931 29.1865 47.0443 29.4812C46.8551 29.4812 46.7347 29.6532 46.5627 29.6532L45.3071 30.066L43.9999 30.4272C43.5966 30.5416 43.2003 30.6795 42.813 30.84C42.362 30.952 41.9194 31.0957 41.4886 31.27C41.306 31.2843 41.1265 31.3249 40.9554 31.3904C40.5942 31.3904 40.233 31.5624 39.8202 31.614C39.5746 31.6496 39.3239 31.619 39.0941 31.5252C38.8642 31.4315 38.6636 31.2781 38.513 31.0808C38.1002 30.7884 36.793 29.722 36.6038 30.1348L34.4021 33.9532C34.2817 34.1252 34.2817 34.194 34.4021 34.2456C34.8838 34.4864 36.2598 34.8992 36.7242 35.14C37.1886 35.3808 37.8594 35.6216 38.4442 35.8624C38.7471 35.9619 39.0275 36.1197 39.2698 36.3269C39.5095 36.5377 39.6908 36.8067 39.7962 37.108C39.9017 37.4092 39.9277 37.7326 39.8718 38.0469C39.8089 38.4333 39.711 38.8133 39.5794 39.1821C39.459 39.5433 39.3386 39.9561 39.2182 40.3173C39.0574 40.7279 38.9196 41.147 38.8054 41.5729L38.4442 42.6393C38.2722 43.0693 38.1518 43.4821 37.9626 43.8433C37.7734 44.2045 37.7906 44.6173 37.6702 45.0302C37.4945 45.4115 37.3562 45.8089 37.2574 46.217C37.0682 46.647 36.9478 47.0598 36.8274 47.421C36.7066 47.8862 36.5089 48.328 36.2426 48.7282C36.0793 48.9577 35.8622 49.1436 35.6102 49.2696C35.3583 49.3955 35.0793 49.4577 34.7978 49.4506C34.4044 49.4631 34.0157 49.3628 33.6774 49.1617C33.3391 48.9606 33.0654 48.6669 32.8885 48.3154C32.7773 48.1056 32.7107 47.875 32.6929 47.6382C32.6751 47.4014 32.7066 47.1634 32.7853 46.9394C32.9561 46.5148 33.0941 46.0778 33.1981 45.6322C33.3701 45.1506 33.6109 44.6173 33.7829 44.0153C33.9549 43.4133 34.0237 43.2413 34.1441 42.8801C34.2596 42.475 34.4033 42.0784 34.5742 41.6933C34.6774 41.3321 34.7978 40.9709 34.9182 40.6269C35.0386 40.2829 35.2278 39.7841 35.3482 39.3713C35.4686 38.9585 35.4686 38.9413 35.1074 38.7693C34.6184 38.6011 34.1415 38.4 33.6797 38.1673L32.7165 37.8233L31.7705 37.4621C31.4707 37.2794 31.1463 37.1404 30.8073 37.0493C30.5149 36.9289 30.2053 36.7397 29.8613 36.6193L29.3109 36.4473C30.2053 37.1009 31.0309 37.8233 31.9941 38.5457C31.8909 38.5457 31.8221 38.5457 31.7017 38.5457H30.8761C30.6869 38.5457 30.6353 38.6661 30.6869 38.8381C30.9965 39.4401 31.2201 40.0937 31.4609 40.6957C31.6634 41.1209 31.8414 41.5574 31.9941 42.0029C32.0545 42.0569 32.1027 42.1233 32.1353 42.1974C32.1679 42.2716 32.1843 42.3519 32.1833 42.4329C32.209 42.4774 32.2225 42.5278 32.2225 42.5791C32.2225 42.6304 32.209 42.6809 32.1833 42.7253L31.9597 44.0325C31.8455 44.4528 31.7076 44.8662 31.5469 45.271C31.5469 45.5118 31.4265 45.7526 31.4265 45.9418C31.4265 46.131 31.2373 46.1654 31.1341 46.0622C30.7847 45.6598 30.3576 45.3322 29.8785 45.0989C29.2245 44.8507 28.5312 44.7225 27.8317 44.7205C27.3427 44.7364 26.8599 44.8353 26.4041 45.013C25.9433 45.1951 25.5182 45.4571 25.1484 45.787C24.5809 46.2313 24.1514 46.8278 23.91 47.507C23.7165 48.0007 23.6117 48.5248 23.6004 49.055C23.644 49.6918 23.8194 50.3127 24.1155 50.8782C24.4116 51.4437 24.8219 51.9416 25.3204 52.3402C25.763 52.6419 26.2429 52.8848 26.7481 53.0626C27.4204 53.3089 28.1505 53.3508 28.8465 53.183C29.3066 53.0639 29.747 52.8785 30.1537 52.6326C30.7178 52.3234 31.192 51.8729 31.5297 51.3254C31.7541 50.9956 31.9011 50.6192 31.9597 50.2246C31.9711 50.1974 31.9769 50.1681 31.9769 50.1386C31.9769 50.1091 31.9711 50.0799 31.9597 50.0526C32.0801 49.9322 32.1489 49.9322 32.2693 50.0526C32.6525 50.399 33.1061 50.6582 33.599 50.8126C34.0918 50.967 34.6123 51.0129 35.1246 50.947C35.9946 50.8748 36.8111 50.497 37.4294 49.8806C37.6706 49.6119 37.8732 49.3108 38.0314 48.9862C38.2722 48.3326 38.4442 47.7306 38.6334 47.077C38.8226 46.4234 39.115 45.8214 39.287 45.2366C39.459 44.6517 39.5794 44.3421 39.7686 43.8605C39.7951 43.8215 39.8311 43.79 39.8733 43.7689C39.9154 43.7478 39.9623 43.7379 40.0094 43.7401H40.4222C40.9906 43.8525 41.5648 43.9329 42.1422 43.9809L43.8623 44.1529C44.4643 44.2733 45.0491 44.3421 45.5823 44.4453C46.0396 44.471 46.4941 44.5343 46.9411 44.6345C47.1303 44.6345 47.1303 44.6345 47.1303 44.4453V44.1013C46.9411 43.4993 46.8207 42.8973 46.6487 42.3813C46.6128 42 46.5554 41.621 46.4767 41.2461C46.4151 40.9037 46.3347 40.5649 46.2359 40.2313C46.2359 39.9217 46.1155 39.6293 46.0467 39.3885C45.9263 38.7349 45.8059 38.1329 45.6855 37.5481C45.5651 36.9633 45.3931 36.3441 45.2727 35.828C45.2727 35.5184 45.1523 35.226 45.1007 34.9852C45.0491 34.7444 44.9803 34.28 44.8599 33.85C44.7635 33.5195 44.7058 33.179 44.6879 32.8352C44.6879 32.8352 44.6879 32.8352 44.6879 32.732C44.6879 32.302 44.5675 32.2504 45.1007 32.0612C45.526 31.9729 45.9453 31.858 46.3563 31.7172C46.3563 31.7172 46.4767 31.7172 46.5971 31.7172C46.7175 31.7172 46.8379 31.7172 46.8895 31.8892C47.0099 32.6116 47.1991 33.334 47.3195 34.0392C47.4399 34.7444 47.5431 35.2948 47.6635 35.8969C47.7839 36.4989 47.9731 37.0837 48.0935 37.6169C48.0935 37.9093 48.2139 38.2017 48.2655 38.4425C48.3859 39.0961 48.5063 39.6981 48.6783 40.3001L49.0395 42.0201C49.0546 42.3495 49.0948 42.6773 49.1599 43.0005C49.2 43.3864 49.2807 43.7669 49.4007 44.1357C49.4007 44.3249 49.4007 44.5485 49.5211 44.7377C49.5383 44.8485 49.586 44.9522 49.6589 45.0373C49.7319 45.1224 49.8271 45.1855 49.9339 45.2194C50.4642 45.4941 50.9325 45.8746 51.3099 46.3374C51.6695 46.7573 51.9336 47.2502 52.0839 47.7822C52.2517 48.3391 52.3101 48.9231 52.2559 49.5022C52.1579 50.066 51.9599 50.6077 51.6711 51.1018C51.2982 51.7672 50.7589 52.3244 50.1059 52.7186C49.8607 52.7896 49.6242 52.8877 49.4007 53.011C49.4007 53.011 49.2803 53.011 49.2115 53.1314C49.1427 53.2518 49.1599 53.3206 49.1599 53.3206C49.7103 53.9226 50.2951 54.5075 50.8799 55.0407C51.0234 55.2544 51.1845 55.4558 51.3615 55.6427C51.447 55.8089 51.4747 55.9987 51.4405 56.1824C51.4062 56.3661 51.3119 56.5332 51.1723 56.6575C51.0368 56.7792 50.8695 56.86 50.6898 56.8904C50.5102 56.9208 50.3256 56.8997 50.1575 56.8295C49.7897 56.5601 49.4549 56.2483 49.1599 55.9007C48.3859 55.1783 47.6119 54.3355 46.8379 53.5614C46.7959 53.5294 46.7445 53.512 46.6917 53.512C46.6388 53.512 46.5875 53.5294 46.5455 53.5614C46.1068 53.5934 45.6703 53.6508 45.2383 53.7334C44.9287 53.8538 44.5847 53.8538 44.2235 53.9742L42.899 54.1635C42.4346 54.1635 41.953 54.3355 41.4714 54.3871C40.9898 54.4387 40.8178 54.5075 40.4566 54.6279C39.6826 54.7483 38.9086 54.8171 38.083 54.9375C37.2574 55.0579 36.363 55.2299 35.5718 55.3503C35.18 55.4316 34.7837 55.489 34.3849 55.5223C33.3701 55.6427 32.3553 55.8319 31.3405 55.9523C30.3257 56.0727 29.6205 56.1243 28.8293 56.1759C28.3156 56.2447 27.795 56.2447 27.2813 56.1759C26.8185 56.1295 26.3589 56.0548 25.9053 55.9523C25.4976 55.8231 25.1008 55.6621 24.7184 55.4707C24.598 55.4707 24.5464 55.4707 24.4776 55.4707C24.1852 55.8319 23.7724 56.1931 23.4112 56.5543C23.3322 56.6755 23.2255 56.7761 23.0999 56.8479C22.9742 56.9197 22.8333 56.9605 22.6888 56.9671C22.519 56.9775 22.3499 56.9373 22.2029 56.8515C22.056 56.7658 21.9378 56.6384 21.8632 56.4855C21.7473 56.3418 21.6841 56.1627 21.6841 55.9781C21.6841 55.7934 21.7473 55.6144 21.8632 55.4707C22.1782 55.1717 22.4768 54.8559 22.7576 54.5247C22.9984 54.3355 22.9984 54.2839 22.7576 54.1119C22.2187 53.5526 21.7769 52.9073 21.4504 52.2026C20.7055 50.8816 20.4729 49.3326 20.7968 47.851C20.7968 47.4898 20.9172 47.1286 20.9688 46.7674C21.0204 46.4062 21.2612 46.1138 21.4504 45.8214C21.7318 45.1068 22.18 44.4699 22.7576 43.9637C23.2655 43.448 23.8447 43.0078 24.4776 42.6565C25.0247 42.3748 25.6016 42.1556 26.1977 42.0029C27.0968 41.7728 28.0339 41.7318 28.9497 41.8825H29.3625C29.4829 41.8825 29.6033 41.8825 29.4829 41.6933L29.3109 41.1601C29.1217 40.6785 28.8809 40.1453 28.7089 39.6809C28.5369 39.2165 28.4165 39.0101 28.2273 38.7177C28.0381 38.4253 28.1069 38.5973 27.9865 38.5973H25.8021C25.4454 38.6206 25.092 38.5171 24.8044 38.3049C24.6095 38.0897 24.4775 37.8251 24.4228 37.5399C24.3682 37.2547 24.3931 36.96 24.4948 36.6881C24.6121 36.4407 24.7973 36.2319 25.0287 36.0857C25.2601 35.9395 25.5283 35.8621 25.8021 35.8624H27.9005" fill="black"/>
</g>
<defs>
<clipPath id="clip0_8374_45491">
<rect width="72" height="72" fill="white" transform="translate(0.5)"/>
</clipPath>
</defs>
</svg>
