<svg width="73" height="72" viewBox="0 0 73 72" fill="none" xmlns="http://www.w3.org/2000/svg">
<g clip-path="url(#clip0_8375_46974)">
<path d="M36.5 0.5C43.5212 0.5 50.3848 2.58204 56.2227 6.48283C62.0607 10.3836 66.6108 15.928 69.2977 22.4147C71.9846 28.9015 72.6877 36.0394 71.3179 42.9257C69.9481 49.812 66.5671 56.1375 61.6023 61.1023C56.6375 66.0671 50.312 69.4481 43.4257 70.8179C36.5394 72.1877 29.4015 71.4846 22.9147 68.7977C16.428 66.1108 10.8836 61.5607 6.98283 55.7227C3.08204 49.8848 1 43.0212 1 36C1 26.5848 4.74017 17.5553 11.3977 10.8977C18.0553 4.24017 27.0848 0.5 36.5 0.5Z" fill="#FED500" stroke="white"/>
<path fill-rule="evenodd" clip-rule="evenodd" d="M38.5202 20.3329C38.6206 20.7671 38.8125 21.175 39.083 21.5293C39.3534 21.8836 39.6963 22.1762 40.0887 22.3876C40.483 22.6113 40.9177 22.755 41.3676 22.8107C41.8176 22.8663 42.2741 22.8327 42.7111 22.7118C43.1481 22.5909 43.557 22.3851 43.9144 22.1061C44.2718 21.827 44.5707 21.4803 44.794 21.0857C45.0093 20.6926 45.1447 20.2607 45.1926 19.8151C45.2404 19.3694 45.1998 18.9187 45.073 18.4888C44.9462 18.0588 44.7358 17.6582 44.4537 17.3098C44.1717 16.9615 43.8236 16.6723 43.4295 16.4588C43.0977 16.2618 42.7296 16.1338 42.3472 16.0823C41.9362 15.9726 41.5035 15.9726 41.0925 16.0823L40.5592 16.2549C40.1219 16.4139 39.7244 16.666 39.394 16.9936C39.0636 17.3213 38.8083 17.7168 38.6457 18.1527C38.3504 18.8413 38.2952 19.6091 38.4888 20.3329M25.847 35.7352C25.909 35.9958 26.0229 36.2412 26.1819 36.4568C26.3409 36.6724 26.5417 36.8538 26.7724 36.9899C27.2282 37.1566 27.7283 37.1566 28.184 36.9899C28.9996 36.7076 29.2663 35.6724 29.5957 35.0764C29.7054 34.8568 29.7054 34.747 29.8152 34.5431L30.9602 31.8767C31.1171 31.4846 31.2896 31.1709 31.4464 30.7788C31.801 30.0779 32.1101 29.3549 32.3718 28.6143L35.2578 27.736C35.0853 28.285 33.6893 31.4376 33.2972 32.3002C33.2045 32.4583 33.1308 32.6268 33.0776 32.8021C32.9208 33.1786 32.7483 33.5079 32.5914 33.8216L31.9327 35.3901C31.8229 35.594 31.8229 35.7038 31.7131 35.9234L29.925 40.0014C29.8051 40.3419 29.6582 40.6723 29.4859 40.9895L28.8428 42.558C28.733 42.7776 28.733 42.8873 28.6232 43.0912C28.5134 43.2951 28.5134 43.4206 28.4036 43.6402C28.2938 43.8598 28.184 43.9068 28.184 44.1892C26.9293 44.5656 25.9098 44.7852 24.655 45.2243L20.7338 46.4164C20.4485 46.4812 20.1788 46.6016 19.94 46.7707C19.7013 46.9398 19.4981 47.1543 19.3423 47.4019C19.1864 47.6495 19.0809 47.9254 19.0317 48.2138C18.9825 48.5022 18.9906 48.7975 19.0556 49.0828C19.1258 49.3717 19.2545 49.6433 19.4336 49.8807C19.6127 50.1181 19.8385 50.3164 20.097 50.4633C20.3556 50.6102 20.6415 50.7027 20.9371 50.735C21.2328 50.7673 21.5319 50.7388 21.8161 50.6512L30.8975 47.828C32.6385 47.279 33.0776 46.2595 33.6736 44.8322C33.6736 44.6126 33.8462 44.5029 33.8932 44.2833L35.7911 40.2053L36.6067 40.5347C37.4223 40.9738 38.1751 41.46 39.0064 41.7894C39.1416 41.869 39.2906 41.9223 39.4456 41.9463C39.5795 42.0421 39.7277 42.1162 39.8848 42.1659C40.6267 42.6775 41.427 43.0987 42.2688 43.4206C42.4257 43.9539 42.9276 51.0277 43.0374 52.2197C43.0724 52.7915 43.1617 53.3587 43.304 53.9136C43.4951 54.3826 43.8446 54.7697 44.2917 55.0075C44.7388 55.2454 45.2551 55.319 45.7508 55.2154C46.0888 55.1202 46.403 54.9552 46.6732 54.731C46.9433 54.5067 47.1634 54.2283 47.3193 53.9136C47.4854 53.3079 47.4854 52.6686 47.3193 52.0628L46.6762 42.009C46.5037 40.4405 46.6762 39.1858 45.1077 38.3074C44.2921 37.884 40.1043 35.7508 39.6652 35.4372C39.8377 34.9352 40.0416 34.5588 40.2141 34.1196L41.9551 30.1514C42.1747 29.7123 42.4884 28.7398 42.708 28.4104C43.6961 28.7398 46.3625 30.5279 47.1781 30.7004C47.5468 30.8085 47.9387 30.8085 48.3074 30.7004C49.4524 30.1671 50.4405 27.5635 51.0365 26.4656L52.4481 23.7992C52.7048 23.4835 52.8793 23.1091 52.9559 22.7095C53.0326 22.3099 53.009 21.8975 52.8873 21.5092C52.7066 21.0815 52.3666 20.7409 51.9392 20.5594C51.5118 20.3779 51.0306 20.3698 50.5973 20.5368C49.7347 20.8034 49.0289 22.6542 48.5897 23.4698C48.1505 24.2854 47.2879 26.1362 46.8958 26.6067C46.2998 26.4499 42.1904 24.1599 41.2964 23.6737C40.1356 23.2153 38.8698 23.0904 37.6419 23.313L30.8975 25.3833C30.3685 25.5407 29.9197 25.8942 29.6427 26.3714C29.5329 26.6381 29.4859 26.7949 29.3761 27.0145C29.2663 27.2341 29.2192 27.4537 29.1094 27.6733L26.6626 32.8962C26.3535 33.5497 26.0812 34.2199 25.847 34.9039C25.778 35.1767 25.778 35.4624 25.847 35.7352Z" fill="black"/>
</g>
<defs>
<clipPath id="clip0_8375_46974">
<rect width="72" height="72" fill="white" transform="translate(0.5)"/>
</clipPath>
</defs>
</svg>
