<svg width="73" height="72" viewBox="0 0 73 72" fill="none" xmlns="http://www.w3.org/2000/svg">
<g clip-path="url(#clip0_8378_45631)">
<path d="M36.5 0.5C43.5212 0.5 50.3848 2.58204 56.2227 6.48283C62.0607 10.3836 66.6108 15.928 69.2977 22.4147C71.9846 28.9015 72.6877 36.0394 71.3179 42.9257C69.9481 49.812 66.5671 56.1375 61.6023 61.1023C56.6375 66.0671 50.312 69.4481 43.4257 70.8179C36.5394 72.1877 29.4015 71.4846 22.9147 68.7977C16.428 66.1108 10.8836 61.5607 6.98283 55.7227C3.08204 49.8848 1 43.0212 1 36C1 26.5848 4.74017 17.5553 11.3977 10.8977C18.0553 4.24017 27.0848 0.5 36.5 0.5Z" fill="#FED500" stroke="white"/>
<path d="M48.0013 21.5V30.6667M26.0013 21.5V30.6667M52.5846 23.3333V26.0833M52.5846 26.0833V28.8333M52.5846 26.0833H55.3346M21.418 23.3333V26.0833M21.418 26.0833V28.8333M21.418 26.0833H18.668M48.0013 26.0833H26.0013M31.5013 30.6667V45.3333M42.5013 30.6667V45.3333M44.3346 50.8333V54.5M29.668 50.8333V54.5M28.3425 50.8333H45.662C47.9298 50.8333 49.0646 50.8333 49.534 50.2778C50.5973 49.0202 48.5586 47.3555 47.8143 46.5177C46.9765 45.5717 46.3623 45.3333 45.123 45.3333H28.8796C27.6403 45.3333 27.028 45.5717 26.1883 46.5177C25.444 47.3555 23.4053 49.0202 24.4686 50.2778C24.938 50.8333 26.0746 50.8333 28.3425 50.8333Z" stroke="black" stroke-width="3" stroke-linecap="round" stroke-linejoin="round"/>
</g>
<defs>
<clipPath id="clip0_8378_45631">
<rect width="72" height="72" fill="white" transform="translate(0.5)"/>
</clipPath>
</defs>
</svg>
