<svg width="73" height="72" viewBox="0 0 73 72" fill="none" xmlns="http://www.w3.org/2000/svg">
<g clip-path="url(#clip0_8374_46496)">
<path d="M36.5 0.5C43.5212 0.5 50.3848 2.58204 56.2227 6.48283C62.0607 10.3836 66.6108 15.928 69.2977 22.4147C71.9846 28.9015 72.6877 36.0394 71.3179 42.9257C69.9481 49.812 66.5671 56.1375 61.6023 61.1023C56.6375 66.0671 50.312 69.4481 43.4257 70.8179C36.5394 72.1877 29.4015 71.4846 22.9147 68.7977C16.428 66.1108 10.8836 61.5607 6.98283 55.7227C3.08204 49.8848 1 43.0212 1 36C1 26.5848 4.74017 17.5553 11.3977 10.8977C18.0553 4.24017 27.0848 0.5 36.5 0.5Z" fill="#FED500" stroke="white"/>
<path fill-rule="evenodd" clip-rule="evenodd" d="M20.9702 13.2758C20.4542 14.153 20.6262 14.5658 20.6262 16.1998C20.0414 16.1998 19.5254 16.1998 19.5254 17.0598C19.5254 17.6446 20.1618 17.5242 20.6262 17.5242C20.6262 20.0354 20.3338 20.6203 21.8474 20.6203C23.8254 20.6203 22.4322 21.4287 24.5306 20.9643C24.8145 19.8408 24.8903 18.6749 24.7542 17.5242H48.8345C49.4193 17.5242 49.2301 18.281 49.2301 18.8658V20.7235C49.7633 21.0847 49.2301 21.0847 50.4513 21.0847C51.1049 21.0847 50.2793 20.5515 52.0338 20.6203C53.7882 20.6891 53.255 20.0354 53.255 17.5242C54.2354 17.5242 54.0634 17.5242 54.4074 16.9394C54.0118 16.131 54.0118 16.1998 53.255 16.1998C53.255 13.8606 53.427 14.153 52.8422 13.2758H51.1049C50.9329 12.5878 49.2989 12.6394 49.2989 13.2758V16.1998H24.7542C24.7542 13.0522 24.9951 12.7598 23.533 12.7598C22.071 12.7598 24.3414 13.2242 20.9702 13.2242M33.6811 22.3059C33.6777 23.167 33.9973 23.9982 34.5769 24.6351C35.1565 25.272 35.9539 25.6684 36.8116 25.7459C37.4778 25.7765 38.1379 25.6068 38.7068 25.2587C39.2756 24.9105 39.7271 24.3999 40.0029 23.7927C40.2787 23.1855 40.3663 22.5095 40.2543 21.8521C40.1422 21.1946 39.8358 20.5858 39.3744 20.1042C38.9272 19.6223 38.3458 19.2857 37.7052 19.1378C37.0647 18.9899 36.3945 19.0376 35.7813 19.2747C35.1681 19.5118 34.6402 19.9275 34.2658 20.4678C33.8914 21.0082 33.6877 21.6485 33.6811 22.3059ZM28.5211 15.615H31.4279C31.3106 15.3259 31.1113 15.0775 30.8546 14.9002C30.5979 14.723 30.295 14.6247 29.9831 14.6174C29.6461 14.5698 29.3032 14.6442 29.0162 14.8271C28.7293 15.01 28.5171 15.2894 28.4179 15.615H28.5211ZM42.7112 15.615H45.6353C45.2913 14.7894 43.7261 13.9982 42.608 15.615H42.7112ZM32.9071 41.5185L32.4943 46.4205C32.3739 47.9342 32.2019 49.723 32.0815 51.3054L31.6859 56.2419C31.5271 57.0109 31.4865 57.7997 31.5655 58.5811C31.6794 58.8925 31.8809 59.1644 32.1458 59.364C32.4107 59.5636 32.7276 59.6824 33.0584 59.706C33.3892 59.7296 33.7198 59.6571 34.0103 59.4972C34.3008 59.3373 34.5389 59.0968 34.696 58.8047L36.158 43.3245H37.7232C38.0156 44.5457 37.964 46.3517 38.1876 47.745C38.308 48.5018 38.308 49.1898 38.3768 49.9466L38.9444 56.6375C38.9444 58.1511 39.0648 59.6647 40.9224 59.6647C41.2985 59.6238 41.6506 59.4601 41.9242 59.1989C42.1978 58.9377 42.3777 58.5936 42.436 58.2199C42.4673 57.7732 42.4673 57.3249 42.436 56.8783C42.436 54.9518 41.8512 51.873 41.7996 49.8434C41.7996 48.9662 41.6276 48.1234 41.5588 47.0397L41.0428 41.5185L41.4556 32.9184L44.0013 23.1659C44.2249 22.3575 44.4657 21.5491 44.6377 20.7923C44.9061 19.9705 45.1187 19.1315 45.2741 18.281H41.834L39.5808 26.8811H34.352C34.352 25.9523 32.2019 19.141 32.1503 18.281H28.7103L32.3051 31.7832C32.5757 32.7696 32.7145 33.7875 32.7179 34.8104C32.6663 37.0808 32.9071 39.1105 32.9071 41.5185Z" fill="black"/>
</g>
<defs>
<clipPath id="clip0_8374_46496">
<rect width="72" height="72" fill="white" transform="translate(0.5)"/>
</clipPath>
</defs>
</svg>
