<svg width="73" height="72" viewBox="0 0 73 72" fill="none" xmlns="http://www.w3.org/2000/svg">
<g clip-path="url(#clip0_8374_46485)">
<path d="M36.5 0.5C43.5212 0.5 50.3848 2.58204 56.2227 6.48283C62.0607 10.3836 66.6108 15.928 69.2977 22.4147C71.9846 28.9015 72.6877 36.0394 71.3179 42.9257C69.9481 49.812 66.5671 56.1375 61.6023 61.1023C56.6375 66.0671 50.312 69.4481 43.4257 70.8179C36.5394 72.1877 29.4015 71.4846 22.9147 68.7977C16.428 66.1108 10.8836 61.5607 6.98283 55.7227C3.08204 49.8848 1 43.0212 1 36C1 26.5848 4.74017 17.5553 11.3977 10.8977C18.0553 4.24017 27.0848 0.5 36.5 0.5Z" fill="#FED500" stroke="white"/>
<path fill-rule="evenodd" clip-rule="evenodd" d="M57.0902 22.5984C57.0632 23.6234 56.6358 24.5972 55.8996 25.3109C55.1633 26.0247 54.1768 26.4217 53.1514 26.4168C52.1414 26.4078 51.1754 26.0026 50.4612 25.2885C49.7471 24.5743 49.3419 23.6083 49.3329 22.5984C49.3281 21.5729 49.725 20.5864 50.4388 19.8502C51.1525 19.1139 52.1263 18.6865 53.1514 18.6595C54.1932 18.6685 55.1899 19.0864 55.9266 19.8231C56.6633 20.5599 57.0812 21.5565 57.0902 22.5984ZM58.9994 31.6629C58.9592 31.2913 58.822 30.9368 58.6016 30.6349C58.3813 30.3331 58.0855 30.0944 57.7438 29.9428L52.7902 27.7584L48.6105 25.6256C48.4543 25.4892 48.2732 25.384 48.0773 25.316L44.6373 23.8368C44.5046 23.7652 44.3577 23.7241 44.2073 23.7164L37.826 22.3404C37.2603 22.2468 36.6807 22.3819 36.2146 22.7157C35.7485 23.0496 35.4341 23.5549 35.3406 24.1206C35.247 24.6862 35.3821 25.2659 35.7159 25.732C36.0498 26.1981 36.5551 26.5125 37.1208 26.606L43.1924 27.9132L44.9125 28.584L42.642 31.6113L30.6019 27.208C30.0544 27.0112 29.4548 27.0148 28.9097 27.2182C28.3646 27.4217 27.9093 27.8118 27.6246 28.3192C27.34 28.8267 27.2444 29.4186 27.3549 29.9898C27.4654 30.5611 27.7749 31.0746 28.2283 31.4393L26.1299 32.2821L24.771 26.8468L25.4762 26.6748C25.8386 26.6162 26.179 26.4629 26.463 26.2303C26.7469 25.9977 26.9643 25.6941 27.0931 25.3504L29.4839 18.6767C29.6532 18.1356 29.6106 17.5503 29.3647 17.0394C29.1188 16.5284 28.688 16.13 28.1595 15.9247C27.8932 15.8275 27.6102 15.7847 27.3271 15.799C27.044 15.8133 26.7667 15.8843 26.5116 16.0079C26.2565 16.1314 26.0289 16.3049 25.8422 16.5181C25.6554 16.7314 25.5134 16.9799 25.4246 17.2491L23.5154 22.5984L22.621 22.9596H22.3286C22.0512 23.015 21.7842 23.1137 21.5374 23.252L18.3898 24.4388C17.9255 24.6098 17.5467 24.9558 17.3346 25.4027C17.1224 25.8496 17.0936 26.3618 17.2546 26.8296L21.5374 40.5898L21.9502 45.3026L17.6674 54.0919C17.5258 54.3849 17.4442 54.7032 17.4274 55.0282C17.4106 55.3532 17.4589 55.6782 17.5694 55.9843C17.68 56.2903 17.8506 56.5712 18.0712 56.8104C18.2918 57.0496 18.558 57.2423 18.8542 57.3772C19.1616 57.5628 19.5103 57.6692 19.869 57.6868C20.3386 57.6847 20.7976 57.5474 21.1912 57.2911C21.5847 57.0349 21.896 56.6706 22.0878 56.2419L26.8007 46.8162C27.0205 46.4181 27.105 45.9593 27.0415 45.509L26.3191 37.7517L27.5231 37.0293L31.1523 35.7221L34.8503 38.8869C35.2956 39.2819 35.8721 39.4965 36.4672 39.489C36.8184 39.5017 37.1678 39.4322 37.4873 39.2859C37.8069 39.1395 38.0878 38.9204 38.3076 38.6461C38.5237 38.4074 38.6894 38.1274 38.7946 37.823C38.8998 37.5186 38.9425 37.1961 38.92 36.8748C38.8975 36.5536 38.8103 36.2401 38.6637 35.9534C38.5171 35.6666 38.3141 35.4124 38.0668 35.2061L41.8336 36.6337C41.9693 36.6666 42.1108 36.6666 42.2464 36.6337C42.1946 36.8485 42.1946 37.0725 42.2464 37.2873L43.4504 45.5778L42.8484 53.9887C42.8203 54.3115 42.8571 54.6366 42.9567 54.9449C43.0562 55.2532 43.2166 55.5384 43.4282 55.7837C43.6398 56.029 43.8985 56.2295 44.1889 56.3731C44.4792 56.5168 44.7955 56.6009 45.1189 56.6203H45.2909C45.9162 56.6047 46.5131 56.3562 46.9649 55.9235C47.4166 55.4909 47.6906 54.9052 47.7333 54.2811L48.3353 45.681V45.1994L47.4409 38.4741L49.6425 35.6189L52.2053 32.1789L54.9402 33.4345L55.5422 38.1989C55.5774 38.7236 55.8133 39.2146 56.2007 39.57C56.5882 39.9255 57.0977 40.1182 57.6234 40.1082H57.761C58.0468 40.0852 58.3248 40.004 58.578 39.8695C58.8312 39.7349 59.0541 39.5499 59.233 39.3259C59.4119 39.1019 59.543 38.8435 59.6182 38.5669C59.6934 38.2902 59.7111 38.0011 59.6702 37.7173L58.9994 31.6629ZM22.019 18.6595C22.0281 19.1692 21.9364 19.6756 21.7493 20.1498C21.5621 20.6239 21.2831 21.0564 20.9283 21.4224C20.5734 21.7884 20.1498 22.0807 19.6817 22.2825C19.2136 22.4843 18.7103 22.5917 18.2006 22.5984C17.1601 22.585 16.166 22.1657 15.4302 21.4299C14.6944 20.6941 14.2751 19.7 14.2617 18.6595C14.2798 17.6284 14.7033 16.6459 15.4405 15.9248C16.1777 15.2037 17.1693 14.802 18.2006 14.8067C18.7064 14.8066 19.2072 14.9071 19.6738 15.1022C20.1405 15.2973 20.5638 15.5832 20.919 15.9433C21.2743 16.3033 21.5545 16.7304 21.7433 17.1996C21.9321 17.6689 22.0258 18.171 22.019 18.6767V18.6595Z" fill="black"/>
</g>
<defs>
<clipPath id="clip0_8374_46485">
<rect width="72" height="72" fill="white" transform="translate(0.5)"/>
</clipPath>
</defs>
</svg>
