<svg width="73" height="72" viewBox="0 0 73 72" fill="none" xmlns="http://www.w3.org/2000/svg">
<g clip-path="url(#clip0_8374_46949)">
<path d="M36.5 0.5C43.5212 0.5 50.3848 2.58204 56.2227 6.48283C62.0607 10.3836 66.6108 15.928 69.2977 22.4147C71.9846 28.9015 72.6877 36.0394 71.3179 42.9257C69.9481 49.812 66.5671 56.1375 61.6023 61.1023C56.6375 66.0671 50.312 69.4481 43.4257 70.8179C36.5394 72.1877 29.4015 71.4846 22.9147 68.7977C16.428 66.1108 10.8836 61.5607 6.98283 55.7227C3.08204 49.8848 1 43.0212 1 36C1 26.5848 4.74017 17.5553 11.3977 10.8977C18.0553 4.24017 27.0848 0.5 36.5 0.5Z" fill="#FED500" stroke="white"/>
<path fill-rule="evenodd" clip-rule="evenodd" d="M33.6809 35.7226V58.7192C33.6809 59.1754 33.8621 59.6129 34.1847 59.9355C34.5072 60.2581 34.9447 60.4393 35.4009 60.4393C35.8571 60.4393 36.2946 60.2581 36.6172 59.9355C36.9397 59.6129 37.1209 59.1754 37.1209 58.7192V44.6151H37.7229V58.7192C37.7229 59.1754 37.9042 59.6129 38.2267 59.9355C38.5493 60.2581 38.9868 60.4393 39.443 60.4393C39.8991 60.4393 40.3366 60.2581 40.6592 59.9355C40.9818 59.6129 41.163 59.1754 41.163 58.7192V35.7226C41.163 35.6022 41.163 35.4818 41.163 35.3614V33.8994H33.6809V35.3614C33.6809 35.4818 33.6809 35.6022 33.6809 35.7226ZM33.6809 18.0924C33.6854 17.0948 34.0837 16.1393 34.7892 15.4338C35.4946 14.7284 36.4501 14.3301 37.4477 14.3256C38.4468 14.3256 39.4049 14.7224 40.1113 15.4288C40.8177 16.1353 41.2146 17.0934 41.2146 18.0924C41.2146 19.0914 40.8177 20.0495 40.1113 20.756C39.4049 21.4624 38.4468 21.8592 37.4477 21.8592C36.9436 21.873 36.4419 21.7859 35.9719 21.6029C35.502 21.42 35.0734 21.145 34.7112 20.7941C34.3491 20.4431 34.0607 20.0234 33.8631 19.5594C33.6655 19.0955 33.5626 18.5967 33.5605 18.0924H33.6809ZM33.6809 33.4178V26.8473C29.118 23.6254 25.2367 19.5337 22.26 14.8072C22.0653 14.4732 21.9643 14.0929 21.9676 13.7063H18.8027V11.9863H26.3364V13.7063H24.6164C25.356 18.2816 33.6809 22.5988 33.6809 22.5988H40.733C40.733 22.5988 49.0063 18.23 49.7287 13.7235H47.6647V12.0035H55.1983V13.7235H52.4635C52.4373 14.115 52.3131 14.4935 52.1023 14.8244C49.2042 19.4505 45.4226 23.46 40.9738 26.6237V33.3662L33.6809 33.4178Z" fill="black"/>
</g>
<defs>
<clipPath id="clip0_8374_46949">
<rect width="72" height="72" fill="white" transform="translate(0.5)"/>
</clipPath>
</defs>
</svg>
