<svg width="73" height="72" viewBox="0 0 73 72" fill="none" xmlns="http://www.w3.org/2000/svg">
<g clip-path="url(#clip0_8378_45593)">
<path d="M36.5 0.5C43.5212 0.5 50.3848 2.58204 56.2227 6.48283C62.0607 10.3836 66.6108 15.928 69.2977 22.4147C71.9846 28.9015 72.6877 36.0394 71.3179 42.9257C69.9481 49.812 66.5671 56.1375 61.6023 61.1023C56.6375 66.0671 50.312 69.4481 43.4257 70.8179C36.5394 72.1877 29.4015 71.4846 22.9147 68.7977C16.428 66.1108 10.8836 61.5607 6.98283 55.7227C3.08204 49.8848 1 43.0212 1 36C1 26.5848 4.74017 17.5553 11.3977 10.8977C18.0553 4.24017 27.0848 0.5 36.5 0.5Z" fill="#FED500" stroke="white"/>
<path fill-rule="evenodd" clip-rule="evenodd" d="M49.1609 43.8752C49.4529 44.2307 49.6431 44.6587 49.7113 45.1137L50.1069 48.3989L53.6846 56.741C53.9127 57.2519 53.9284 57.8325 53.7284 58.3551C53.5285 58.8776 53.1291 59.2993 52.6182 59.5274C52.1072 59.7555 51.5266 59.7713 51.0041 59.5713C50.4815 59.3713 50.0598 58.9719 49.8317 58.461L46.0993 49.9813C45.9902 49.7418 45.9205 49.4862 45.8929 49.2245L45.7209 48.0205L48.8341 44.2192C48.9611 44.1378 49.0578 44.017 49.1093 43.8752M35.8136 34.7763C35.4726 34.8012 35.1405 34.8959 34.8377 35.0546C34.5349 35.2132 34.268 35.4324 34.0534 35.6986C33.8389 35.9647 33.6814 36.2721 33.5907 36.6017C33.4999 36.9312 33.4779 37.2759 33.5259 37.6144C33.5623 37.9502 33.6647 38.2754 33.8272 38.5715C33.9897 38.8676 34.2091 39.1287 34.4729 39.3397C34.7366 39.5507 35.0395 39.7074 35.364 39.801C35.6886 39.8945 36.0284 39.923 36.364 39.8848C36.8711 39.8097 37.3475 39.5954 37.74 39.2656L40.9048 38.9216L41.5928 45.6125L39.46 48.1581C39.2649 48.3958 39.1214 48.6714 39.0385 48.9675C38.9556 49.2636 38.9351 49.5737 38.9784 49.8781L40.0792 59.8714C40.0955 60.1465 40.1686 60.4153 40.294 60.6608C40.4193 60.9062 40.5942 61.1231 40.8075 61.2976C41.0208 61.4721 41.268 61.6006 41.5334 61.6748C41.7988 61.7491 42.0767 61.7675 42.3496 61.729C42.6255 61.7074 42.8944 61.6313 43.1408 61.5053C43.3872 61.3792 43.6063 61.2057 43.7853 60.9947C43.9644 60.7837 44.0999 60.5393 44.1841 60.2757C44.2683 60.0121 44.2996 59.7344 44.2761 59.4586L43.2784 50.1189L48.5933 43.8408C48.9165 43.3772 49.085 42.8234 49.0749 42.2584L47.7677 29.9259C47.6466 28.9058 47.1301 27.974 46.3292 27.3307C45.5283 26.6874 44.507 26.3841 43.4848 26.4858C42.9733 26.5256 42.4752 26.6695 42.0212 26.9087C41.5672 27.1479 41.1669 27.4773 40.8448 27.8767C40.5227 28.2761 40.2856 28.7372 40.148 29.2315C40.0104 29.7258 39.9753 30.2431 40.0448 30.7515L40.4576 34.6387L37.2928 34.9827C36.8408 34.7773 36.3394 34.7056 35.848 34.7763H35.8136ZM32.2875 27.8963C31.9525 27.9305 31.6275 28.0309 31.3316 28.1916C31.0356 28.3523 30.7744 28.5702 30.5633 28.8326C30.3521 29.0949 30.1951 29.3966 30.1013 29.7201C30.0076 30.0436 29.9789 30.3825 30.0171 30.7171C30.0551 31.0512 30.1598 31.3743 30.325 31.6672C30.4902 31.9601 30.7125 32.2168 30.9788 32.4221C31.2451 32.6274 31.5499 32.7772 31.8752 32.8625C32.2005 32.9478 32.5395 32.9669 32.8723 32.9187C33.0625 32.9056 33.2488 32.8591 33.4227 32.7811L39.8384 34.5011L39.4256 30.0291L34.5235 28.7907C34.2637 28.4575 33.9289 28.1903 33.5463 28.011C33.1638 27.8316 32.7442 27.7452 32.3219 27.7587L32.2875 27.8963ZM42.4528 17.2837C41.384 17.3521 40.3813 17.825 39.6485 18.6061C38.9157 19.3873 38.5079 20.4181 38.5079 21.4892C38.5079 22.5602 38.9157 23.5911 39.6485 24.3723C40.3813 25.1534 41.384 25.6262 42.4528 25.6946C43.0277 25.7314 43.604 25.6499 44.1462 25.4552C44.6884 25.2605 45.1849 24.9568 45.605 24.5626C46.0251 24.1685 46.36 23.6924 46.5889 23.1638C46.8179 22.6352 46.936 22.0652 46.936 21.4892C46.936 20.9131 46.8179 20.3432 46.5889 19.8146C46.36 19.2859 46.0251 18.8099 45.605 18.4157C45.1849 18.0216 44.6884 17.7178 44.1462 17.5231C43.604 17.3284 43.0277 17.247 42.4528 17.2837ZM23.9798 16.5269C22.9216 16.6676 21.9495 17.1849 21.2419 17.9842C20.5342 18.7835 20.1384 19.8111 20.127 20.8786V36.2556C20.1247 36.8254 20.2353 37.3901 20.4523 37.917C20.6693 38.4439 20.9885 38.9226 21.3914 39.3255C21.7944 39.7285 22.2731 40.0477 22.8 40.2647C23.3269 40.4817 23.8916 40.5923 24.4614 40.59C25.6112 40.5855 26.7129 40.1279 27.5275 39.3165C28.3421 38.5051 28.804 37.4053 28.8131 36.2556V20.8786C28.797 19.8115 28.3969 18.7859 27.6861 17.9899C26.9754 17.1938 26.0015 16.6805 24.943 16.5441V10.7305H23.9798V16.5269Z" fill="black"/>
</g>
<defs>
<clipPath id="clip0_8378_45593">
<rect width="72" height="72" fill="white" transform="translate(0.5)"/>
</clipPath>
</defs>
</svg>
