<svg width="73" height="72" viewBox="0 0 73 72" fill="none" xmlns="http://www.w3.org/2000/svg">
<g clip-path="url(#clip0_8378_45599)">
<path d="M36.5 0.5C43.5212 0.5 50.3848 2.58204 56.2227 6.48283C62.0607 10.3836 66.6108 15.928 69.2977 22.4147C71.9846 28.9015 72.6877 36.0394 71.3179 42.9257C69.9481 49.812 66.5671 56.1375 61.6023 61.1023C56.6375 66.0671 50.312 69.4481 43.4257 70.8179C36.5394 72.1877 29.4015 71.4846 22.9147 68.7977C16.428 66.1108 10.8836 61.5607 6.98283 55.7227C3.08204 49.8848 1 43.0212 1 36C1 26.5848 4.74017 17.5553 11.3977 10.8977C18.0553 4.24017 27.0848 0.5 36.5 0.5Z" fill="#FED500" stroke="white"/>
<path fill-rule="evenodd" clip-rule="evenodd" d="M36.5537 27.7582C37.351 27.6185 38.0735 27.2022 38.5941 26.5824C39.1147 25.9626 39.4002 25.1791 39.4002 24.3697C39.4002 23.5603 39.1147 22.7768 38.5941 22.157C38.0735 21.5373 37.351 21.121 36.5537 20.9813C35.7564 21.121 35.0339 21.5373 34.5133 22.157C33.9927 22.7768 33.7073 23.5603 33.7073 24.3697C33.7073 25.1791 33.9927 25.9626 34.5133 26.5824C35.0339 27.2022 35.7564 27.6185 36.5537 27.7582ZM41.043 31.783V38.5427C41.13 39.2855 41.0775 40.038 40.8882 40.7615C42.6082 41.8795 44.9646 44.2015 45.1194 46.2656C45.3774 49.8604 39.2541 52.6124 39.2025 52.664C37.3965 54.1432 35.0229 50.944 37.2933 49.224C37.2933 49.224 40.6302 47.504 40.5098 46.214C40.3894 44.9239 37.0697 43.4103 36.3473 43.1351V57.8585C36.3473 58.4059 36.1299 58.9309 35.7428 59.318C35.3557 59.7051 34.8307 59.9225 34.2833 59.9225C33.7359 59.9225 33.2109 59.7051 32.8238 59.318C32.4367 58.9309 32.2193 58.4059 32.2193 57.8585V32.0582C30.8512 30.185 29.8156 28.0904 29.1576 25.8661C28.7666 24.5271 28.7678 23.1041 29.1611 21.7657C29.5543 20.4273 30.3232 19.2299 31.3765 18.3153C31.609 18.0713 31.856 17.8416 32.1161 17.6272C33.3201 16.4576 34.5929 15.288 34.3865 14.1872C34.357 14.0143 34.3622 13.8372 34.4018 13.6663C34.4413 13.4954 34.5144 13.3341 34.6168 13.1916C34.7193 13.0492 34.8489 12.9286 34.9984 12.8367C35.1478 12.7448 35.314 12.6835 35.4873 12.6564C35.6716 12.5968 35.8687 12.5894 36.0569 12.6349C36.2451 12.6804 36.4171 12.7772 36.5537 12.9144C36.6917 12.7848 36.8607 12.693 37.0445 12.6478C37.2283 12.6026 37.4206 12.6056 37.6029 12.6564C37.7798 12.6768 37.9506 12.7336 38.1045 12.8232C38.2583 12.9128 38.392 13.0333 38.497 13.1771C38.602 13.3209 38.6761 13.4849 38.7147 13.6587C38.7532 13.8326 38.7553 14.0125 38.7209 14.1872C38.5661 15.288 39.7702 16.4576 41.043 17.6272C41.1978 17.782 41.3698 17.8852 41.7826 18.3153C42.8065 19.2402 43.5555 20.4296 43.9469 21.7528C44.3384 23.0759 44.3573 24.4814 44.0014 25.8145C43.3679 27.9814 42.3673 30.0235 41.043 31.8518V31.783ZM33.8533 29.4782H39.3057C40.1853 28.1398 40.8634 26.6794 41.3182 25.1437C41.5776 24.2652 41.5811 23.3309 41.3282 22.4504C41.0753 21.57 40.5766 20.7799 39.8906 20.1729L39.2025 19.5365C38.1887 18.6758 37.2975 17.6805 36.5537 16.578C35.8446 17.6914 34.9687 18.6892 33.9565 19.5365L33.2685 20.1729C32.5883 20.785 32.0902 21.573 31.8292 22.4501C31.5682 23.3272 31.5544 24.2593 31.7893 25.1437C32.2631 26.6811 32.9584 28.1413 33.8533 29.4782Z" fill="black"/>
</g>
<defs>
<clipPath id="clip0_8378_45599">
<rect width="72" height="72" fill="white" transform="translate(0.5)"/>
</clipPath>
</defs>
</svg>
