<svg width="73" height="72" viewBox="0 0 73 72" fill="none" xmlns="http://www.w3.org/2000/svg">
<g clip-path="url(#clip0_8378_45605)">
<path d="M36.5 0.5C43.5212 0.5 50.3848 2.58204 56.2227 6.48283C62.0607 10.3836 66.6108 15.928 69.2977 22.4147C71.9846 28.9015 72.6877 36.0394 71.3179 42.9257C69.9481 49.812 66.5671 56.1375 61.6023 61.1023C56.6375 66.0671 50.312 69.4481 43.4257 70.8179C36.5394 72.1877 29.4015 71.4846 22.9147 68.7977C16.428 66.1108 10.8836 61.5607 6.98283 55.7227C3.08204 49.8848 1 43.0212 1 36C1 26.5848 4.74017 17.5553 11.3977 10.8977C18.0553 4.24017 27.0848 0.5 36.5 0.5Z" fill="#FED500" stroke="white"/>
<path fill-rule="evenodd" clip-rule="evenodd" d="M31.4954 13.2267C33.8691 12.1947 34.4195 13.4847 34.1271 14.9467L29.7066 20.64L32.7682 25.8001H38.6507C40.5447 24.7943 42.0199 23.1484 42.8132 21.156C44.5332 17.4752 45.7544 14.5339 45.7544 14.5339C47.2164 12.8139 48.6268 14.2931 48.5752 15.1531C47.6657 18.3201 46.2796 21.3302 44.4644 24.08C43.1228 25.8001 41.7123 27.2621 40.3707 28.8445L44.1548 35.6386C44.1548 35.6386 45.204 37.479 42.6239 47.0939C40.0439 56.7088 39.5623 57.9988 39.5623 57.9988C38.2895 59.7188 35.6579 59.4608 35.5375 57.9988L38.5303 46.0619C38.8865 44.3663 39.0309 42.633 38.9603 40.9018C38.5303 39.9902 32.5962 46.7843 32.5962 46.7843C31.4496 50.4651 30.3029 54.2033 29.1562 57.9988C28.0554 59.2716 25.4238 59.9424 25.4754 57.6892L28.795 45.4943L35.5891 37.6682L27.3846 22.9104C26.9298 22.3119 26.6836 21.5809 26.6836 20.8292C26.6836 20.0775 26.9298 19.3465 27.3846 18.748C29.1046 16.6668 31.4954 13.2955 31.4954 13.2955M35.8987 17.4064C36.8795 17.4064 37.8201 17.796 38.5136 18.4895C39.2071 19.183 39.5967 20.1236 39.5967 21.1044C39.5967 22.0852 39.2071 23.0258 38.5136 23.7193C37.8201 24.4128 36.8795 24.8025 35.8987 24.8025C34.9179 24.8025 33.9773 24.4128 33.2838 23.7193C32.5902 23.0258 32.2006 22.0852 32.2006 21.1044C32.2006 20.1236 32.5902 19.183 33.2838 18.4895C33.9773 17.796 34.9179 17.4064 35.8987 17.4064Z" fill="black"/>
</g>
<defs>
<clipPath id="clip0_8378_45605">
<rect width="72" height="72" fill="white" transform="translate(0.5)"/>
</clipPath>
</defs>
</svg>
