<svg width="73" height="72" viewBox="0 0 73 72" fill="none" xmlns="http://www.w3.org/2000/svg">
<g clip-path="url(#clip0_8378_45611)">
<path d="M36.5 0.5C43.5212 0.5 50.3848 2.58204 56.2227 6.48283C62.0607 10.3836 66.6108 15.928 69.2977 22.4147C71.9846 28.9015 72.6877 36.0394 71.3179 42.9257C69.9481 49.812 66.5671 56.1375 61.6023 61.1023C56.6375 66.0671 50.312 69.4481 43.4257 70.8179C36.5394 72.1877 29.4015 71.4846 22.9147 68.7977C16.428 66.1108 10.8836 61.5607 6.98283 55.7227C3.08204 49.8848 1 43.0212 1 36C1 26.5848 4.74017 17.5553 11.3977 10.8977C18.0553 4.24017 27.0848 0.5 36.5 0.5Z" fill="#FED500" stroke="white"/>
<path d="M24.332 24.4997C24.332 22.758 25.757 21.333 27.4987 21.333C29.2404 21.333 30.6654 22.758 30.6654 24.4997C30.6654 26.2413 29.2404 27.6663 27.4987 27.6663C25.757 27.6663 24.332 26.2413 24.332 24.4997ZM38.582 49.833C37.6954 49.833 36.967 49.1363 36.9195 48.2497L36.207 33.9997L30.6654 32.4163H21.1654C20.2945 32.4163 19.582 31.7038 19.582 30.833C19.582 29.9622 20.2945 29.2497 21.1654 29.2497H29.082L38.9937 22.1722C39.6587 21.6972 40.577 21.808 41.1154 22.4255C41.717 23.138 41.5904 24.1988 40.8304 24.7372L35.637 28.458H40.1654L51.3912 21.9822C51.7315 21.7721 52.1397 21.7014 52.5308 21.785C52.9218 21.8686 53.2655 22.0999 53.4902 22.4308C53.7148 22.7616 53.803 23.1664 53.7365 23.5607C53.6699 23.955 53.4537 24.3084 53.1329 24.5472L40.957 33.9997L40.2445 48.2497C40.197 49.1363 39.4687 49.833 38.582 49.833Z" fill="black"/>
</g>
<defs>
<clipPath id="clip0_8378_45611">
<rect width="72" height="72" fill="white" transform="translate(0.5)"/>
</clipPath>
</defs>
</svg>
