<svg width="73" height="72" viewBox="0 0 73 72" fill="none" xmlns="http://www.w3.org/2000/svg">
<g clip-path="url(#clip0_8374_46956)">
<path d="M36.5 0.5C43.5212 0.5 50.3848 2.58204 56.2227 6.48283C62.0607 10.3836 66.6108 15.928 69.2977 22.4147C71.9846 28.9015 72.6877 36.0394 71.3179 42.9257C69.9481 49.812 66.5671 56.1375 61.6023 61.1023C56.6375 66.0671 50.312 69.4481 43.4257 70.8179C36.5394 72.1877 29.4015 71.4846 22.9147 68.7977C16.428 66.1108 10.8836 61.5607 6.98283 55.7227C3.08204 49.8848 1 43.0212 1 36C1 26.5848 4.74017 17.5553 11.3977 10.8977C18.0553 4.24017 27.0848 0.5 36.5 0.5Z" fill="#FED500" stroke="white"/>
<path fill-rule="evenodd" clip-rule="evenodd" d="M23.3427 21.521C23.3254 21.7125 23.3467 21.9056 23.4055 22.0887C23.4643 22.2719 23.5593 22.4413 23.6849 22.587L28.1202 26.9696C28.515 27.4434 28.8572 27.9041 29.2389 28.3779L30.9103 30.4705C31.0814 30.7205 31.2525 30.9574 31.4104 31.2338C31.7964 31.7811 32.0282 32.422 32.0817 33.0895V39.4595C32.0817 40.7098 30.6471 42.447 30.0154 43.2235C29.3836 44 28.2518 45.5793 27.7648 46.0137L24.8957 48.9617C24.2114 49.5277 23.2901 50.1199 23.3691 51.0807C23.3818 51.3797 23.48 51.6689 23.6521 51.9138C23.8241 52.1588 24.0627 52.3494 24.3397 52.4629C24.6166 52.5765 24.9203 52.6083 25.2148 52.5546C25.5093 52.5009 25.7822 52.3639 26.0013 52.1599C27.2659 51.0355 28.4614 49.8357 29.5811 48.5669L33.0424 44.7897C33.8132 43.9743 34.8276 43.4309 35.9334 43.241C37.0393 43.0512 38.1769 43.2251 39.1755 43.7368C39.9865 44.1779 40.731 44.7318 41.3865 45.3819C41.494 45.4807 41.5951 45.5862 41.6892 45.6978L47.0853 51.4755C47.8749 52.2783 48.1381 52.5284 48.9541 52.5284C50.2044 52.5284 51.2047 50.8043 49.3884 49.4092L48.0723 48.1721C46.3479 46.4469 44.7553 44.5947 43.308 42.6313C42.3907 41.6514 41.8178 40.3993 41.6761 39.0646V33.5633C41.7543 32.2327 42.3269 30.9794 43.2817 30.0493C44.6829 28.0802 46.2457 26.2313 47.9539 24.5217L48.5856 23.9031C48.6842 23.7913 48.7897 23.6858 48.9015 23.5872C49.7175 22.8634 50.336 22.587 50.336 21.5604C50.3324 21.2572 50.2415 20.9614 50.0743 20.7084C49.907 20.4554 49.6705 20.2559 49.3929 20.1337C49.1153 20.0116 48.8084 19.972 48.5089 20.0196C48.2093 20.0672 47.9299 20.2001 47.7038 20.4023C46.4992 21.4258 45.3524 22.5154 44.2688 23.6662C44.1647 23.7736 44.068 23.888 43.9792 24.0084L43.0185 25.0876C42.2904 26.1271 41.4568 27.0886 40.531 27.9567C39.5221 28.8993 38.2119 29.4541 36.8328 29.5229C36.0997 29.5122 35.3789 29.332 34.727 28.9964C34.4305 28.8549 34.1446 28.6922 33.8716 28.5095C31.779 27.1144 31.2394 25.4824 29.3573 23.6662C28.8352 23.0836 28.2816 22.53 27.699 22.0079C26.883 21.2972 25.9486 20.0206 24.8168 20.0206C24.421 20.0274 24.0433 20.1876 23.7633 20.4675C23.4834 20.7474 23.3232 21.1252 23.3164 21.521" fill="black"/>
<path fill-rule="evenodd" clip-rule="evenodd" d="M19.0124 30.7202C19.0124 31.5231 19.7757 31.8258 20.4075 32.4707C20.6707 32.7339 20.9602 32.9839 21.1971 33.2603C22.0921 34.3395 24.3689 36.8138 24.3689 38.1167C24.3689 40.1567 24.5663 40.3015 23.3819 41.8676C22.5243 43.087 21.555 44.2237 20.4864 45.2632C19.8547 45.8949 18.3938 46.7241 19.2756 47.6848C19.4345 47.8724 19.6585 47.9929 19.9026 48.0222C20.1468 48.0515 20.3929 47.9874 20.5917 47.8427L21.763 46.8952C22.0658 46.6977 22.2895 46.5135 22.5922 46.3029C23.9735 45.3487 25.2604 44.2646 26.4352 43.0653C27.6548 41.8623 28.6331 40.4373 29.3175 38.8669C29.798 37.746 30.0658 36.5455 30.1071 35.3266C29.3438 35.5108 29.3701 35.9583 27.6724 35.9583C25.2507 35.9583 24.0794 33.4051 22.4079 31.681L20.6049 30.0753C20.4668 29.9708 20.304 29.9039 20.1323 29.8811C19.9607 29.8584 19.786 29.8806 19.6255 29.9456C19.465 30.0106 19.3241 30.1161 19.2166 30.2519C19.1092 30.3877 19.0388 30.5491 19.0124 30.7202Z" fill="black"/>
<path fill-rule="evenodd" clip-rule="evenodd" d="M45.6909 35.9194C44.8803 35.901 44.0912 35.6547 43.4141 35.2087C43.5349 38.1552 44.8115 40.9354 46.9675 42.9474C48.3743 44.396 49.9368 45.6848 51.6266 46.7904C52.2451 47.1984 52.9427 47.8433 53.5612 47.8433C53.8036 47.8304 54.0324 47.7274 54.2029 47.5545C54.3733 47.3817 54.473 47.1514 54.4825 46.9089C54.4825 46.3693 53.9824 46.1455 53.6534 45.856C52.3429 44.6388 51.157 43.2941 50.113 41.8419C49.6961 41.4119 49.3851 40.8906 49.2046 40.3195C49.0241 39.7484 48.9792 39.1431 49.0733 38.5516C49.2411 37.1334 49.9027 35.8195 50.9422 34.8402C51.7367 33.7624 52.6457 32.7739 53.6534 31.8921C54.0087 31.6026 54.443 31.3525 54.4825 30.8392C54.4938 30.6975 54.4731 30.555 54.4219 30.4224C54.3706 30.2898 54.2902 30.1704 54.1866 30.073C54.0829 29.9757 53.9587 29.903 53.8231 29.8602C53.6875 29.8174 53.544 29.8056 53.4033 29.8258C52.3372 29.8258 48.8233 34.4848 48.1389 34.985C47.4374 35.5709 46.5643 35.9128 45.6514 35.9589" fill="black"/>
<path fill-rule="evenodd" clip-rule="evenodd" d="M33.4123 24.5873C33.403 25.3864 33.6725 26.1639 34.1746 26.7857C34.6767 27.4074 35.3799 27.8347 36.1631 27.9938C36.9463 28.153 37.7605 28.0341 38.4655 27.6575C39.1704 27.281 39.722 26.6704 40.0253 25.931C40.3285 25.1916 40.3645 24.3695 40.1269 23.6064C39.8893 22.8434 39.3931 22.187 38.7236 21.7504C38.0542 21.3138 37.2535 21.1243 36.4594 21.2145C35.6653 21.3047 34.9275 21.669 34.3731 22.2446C33.7956 22.8934 33.4567 23.7198 33.4123 24.5873Z" fill="black"/>
<path fill-rule="evenodd" clip-rule="evenodd" d="M25.1447 32.6951C25.1379 33.1818 25.2999 33.6559 25.6031 34.0366C25.9063 34.4174 26.3321 34.6813 26.808 34.7835C27.2839 34.8858 27.7805 34.82 28.2134 34.5974C28.6462 34.3747 28.9886 34.009 29.1822 33.5625C29.3759 33.1159 29.4089 32.616 29.2755 32.1479C29.1422 31.6798 28.8508 31.2723 28.4509 30.9948C28.051 30.7172 27.5674 30.5868 27.0822 30.6257C26.597 30.6645 26.1402 30.8703 25.7896 31.2079C25.4102 31.6148 25.1825 32.14 25.1447 32.6951Z" fill="black"/>
<path fill-rule="evenodd" clip-rule="evenodd" d="M44.1098 32.6164C44.0817 33.162 44.2681 33.6968 44.629 34.1068C44.99 34.5168 45.497 34.7694 46.0417 34.8106C46.5863 34.8518 47.1256 34.6785 47.5441 34.3275C47.9627 33.9766 48.2275 33.4758 48.2818 32.9323V32.5375C48.2603 32.2658 48.1852 32.0011 48.0609 31.7585C47.9366 31.516 47.7655 31.3004 47.5576 31.1243C47.3496 30.9481 47.1089 30.8148 46.8492 30.7321C46.5895 30.6494 46.316 30.6189 46.0445 30.6423C45.5311 30.6735 45.0469 30.8915 44.6832 31.2552C44.3195 31.6189 44.1015 32.1031 44.0703 32.6164" fill="black"/>
</g>
<defs>
<clipPath id="clip0_8374_46956">
<rect width="72" height="72" fill="white" transform="translate(0.5)"/>
</clipPath>
</defs>
</svg>
